<?xml version="1.0" encoding="UTF-8"?>
<svg id="Layer_1" data-name="Layer 1" xmlns="http://www.w3.org/2000/svg" viewBox="0 0 231.365 174.349">
  <defs>
    <style>
      .cls-1 {
        fill: #0f8140;
      }

      .cls-1, .cls-2, .cls-3, .cls-4 {
        stroke-width: 0px;
      }

      .cls-2, .cls-5 {
        fill: #010101;
      }

      .cls-3 {
        fill: #ed2224;
      }

      .cls-4 {
        fill: #1d458a;
      }

      .cls-6 {
        fill: #fff;
        stroke: #1d458a;
      }

      .cls-6, .cls-7 {
        stroke-miterlimit: 10;
      }

      .cls-5 {
        stroke-linejoin: round;
      }

      .cls-5, .cls-8 {
        stroke: #010101;
      }

      .cls-5, .cls-8, .cls-7 {
        stroke-width: .5px;
      }

      .cls-8 {
        stroke-linecap: square;
      }

      .cls-8, .cls-7 {
        fill: none;
      }

      .cls-7 {
        stroke: #000;
      }
    </style>
  </defs>
  <g id="figure_1" data-name="figure 1">
    <g id="axes_1" data-name="axes 1">
      <g id="PathCollection_1" data-name="PathCollection 1">
        <path id="C0_0_4f4850a693" data-name="C0 0 4f4850a693" class="cls-3" d="M50.538,41.234c.512,0,1.003-.203,1.365-.565s.565-.853.565-1.365-.203-1.003-.565-1.365-.853-.565-1.365-.565-1.003.203-1.365.565-.565.853-.565,1.365.203,1.003.565,1.365.853.565,1.365.565Z"/>
        <path id="C0_0_4f4850a693-2" data-name="C0 0 4f4850a693" class="cls-3" d="M50.537,45.942c.512,0,1.003-.203,1.365-.565s.565-.853.565-1.365-.203-1.003-.565-1.365-.853-.565-1.365-.565-1.003.203-1.365.565-.565.853-.565,1.365.203,1.003.565,1.365.853.565,1.365.565Z"/>
        <path id="C0_0_4f4850a693-3" data-name="C0 0 4f4850a693" class="cls-1" d="M70.982,21.276c.512,0,1.003-.203,1.365-.565s.565-.853.565-1.365-.203-1.003-.565-1.365-.853-.565-1.365-.565-1.003.203-1.365.565-.565.853-.565,1.365.203,1.003.565,1.365.853.565,1.365.565Z"/>
        <path id="C0_0_4f4850a693-4" data-name="C0 0 4f4850a693" class="cls-1" d="M101.168,80.51c.512,0,1.003-.203,1.365-.565s.565-.853.565-1.365-.203-1.003-.565-1.365-.853-.565-1.365-.565-1.003.203-1.365.565-.565.853-.565,1.365.203,1.003.565,1.365.853.565,1.365.565Z"/>
        <path id="C0_0_4f4850a693-5" data-name="C0 0 4f4850a693" class="cls-1" d="M103.79,84.764c.512,0,1.003-.203,1.365-.565s.565-.853.565-1.365-.203-1.003-.565-1.365-.853-.565-1.365-.565-1.003.203-1.365.565-.565.853-.565,1.365.203,1.003.565,1.365.853.565,1.365.565Z"/>
        <path id="C0_0_4f4850a693-6" data-name="C0 0 4f4850a693" class="cls-1" d="M170.109,78.571c.512,0,1.003-.203,1.365-.565s.565-.853.565-1.365-.203-1.003-.565-1.365-.853-.565-1.365-.565-1.003.203-1.365.565-.565.853-.565,1.365.203,1.003.565,1.365.853.565,1.365.565Z"/>
        <path id="C0_0_4f4850a693-7" data-name="C0 0 4f4850a693" class="cls-1" d="M121.315,65.344c.512,0,1.003-.203,1.365-.565s.565-.853.565-1.365-.203-1.003-.565-1.365-.853-.565-1.365-.565-1.003.203-1.365.565-.565.853-.565,1.365.203,1.003.565,1.365.853.565,1.365.565Z"/>
        <path id="C0_0_4f4850a693-8" data-name="C0 0 4f4850a693" class="cls-3" d="M73.67,20.812c.512,0,1.003-.203,1.365-.565s.565-.853.565-1.365-.203-1.003-.565-1.365-.853-.565-1.365-.565-1.003.203-1.365.565-.565.853-.565,1.365.203,1.003.565,1.365.853.565,1.365.565Z"/>
        <path id="C0_0_4f4850a693-9" data-name="C0 0 4f4850a693" class="cls-3" d="M111.314,25.814c.512,0,1.003-.203,1.365-.565s.565-.853.565-1.365-.203-1.003-.565-1.365-.853-.565-1.365-.565-1.003.203-1.365.565-.565.853-.565,1.365.203,1.003.565,1.365.853.565,1.365.565Z"/>
        <path id="C0_0_4f4850a693-10" data-name="C0 0 4f4850a693" class="cls-1" d="M167.547,94.893c.512,0,1.003-.203,1.365-.565s.565-.853.565-1.365-.203-1.003-.565-1.365-.853-.565-1.365-.565-1.003.203-1.365.565-.565.853-.565,1.365.203,1.003.565,1.365.853.565,1.365.565Z"/>
        <path id="C0_0_4f4850a693-11" data-name="C0 0 4f4850a693" class="cls-1" d="M124.317,85.214c.512,0,1.003-.203,1.365-.565s.565-.853.565-1.365-.203-1.003-.565-1.365-.853-.565-1.365-.565-1.003.203-1.365.565-.565.853-.565,1.365.203,1.003.565,1.365.853.565,1.365.565Z"/>
        <path id="C0_0_4f4850a693-12" data-name="C0 0 4f4850a693" class="cls-1" d="M88.246,42.891c.512,0,1.003-.203,1.365-.565s.565-.853.565-1.365-.203-1.003-.565-1.365-.853-.565-1.365-.565-1.003.203-1.365.565-.565.853-.565,1.365.203,1.003.565,1.365.853.565,1.365.565Z"/>
        <path id="C0_0_4f4850a693-13" data-name="C0 0 4f4850a693" class="cls-3" d="M70.516,25.341c.512,0,1.003-.203,1.365-.565s.565-.853.565-1.365-.203-1.003-.565-1.365-.853-.565-1.365-.565-1.003.203-1.365.565-.565.853-.565,1.365.203,1.003.565,1.365.853.565,1.365.565Z"/>
        <path id="C0_0_4f4850a693-14" data-name="C0 0 4f4850a693" class="cls-3" d="M55.185,18.872c.512,0,1.003-.203,1.365-.565s.565-.853.565-1.365-.203-1.003-.565-1.365-.853-.565-1.365-.565-1.003.203-1.365.565-.565.853-.565,1.365.203,1.003.565,1.365.853.565,1.365.565Z"/>
        <path id="C0_0_4f4850a693-15" data-name="C0 0 4f4850a693" class="cls-1" d="M137.455,47.139c.512,0,1.003-.203,1.365-.565s.565-.853.565-1.365-.203-1.003-.565-1.365-.853-.565-1.365-.565-1.003.203-1.365.565-.565.853-.565,1.365.203,1.003.565,1.365.853.565,1.365.565Z"/>
        <path id="C0_0_4f4850a693-16" data-name="C0 0 4f4850a693" class="cls-1" d="M179.676,99.613c.512,0,1.003-.203,1.365-.565s.565-.853.565-1.365-.203-1.003-.565-1.365-.853-.565-1.365-.565-1.003.203-1.365.565-.565.853-.565,1.365.203,1.003.565,1.365.853.565,1.365.565Z"/>
      </g>
      <g id="matplotlib.axis_1" data-name="matplotlib.axis 1">
        <g id="xtick_1" data-name="xtick 1">
          <g id="line2d_1" data-name="line2d 1">
            <path id="m6684a67992" class="cls-5" d="M48.479,148.426v5.669"/>
          </g>
          <g id="text_1" data-name="text 1">
            <g>
              <path id="ArialMT-30" class="cls-2" d="M42.77,160.988c0-.74.076-1.335.228-1.785.152-.451.378-.799.677-1.043.3-.245.678-.367,1.133-.367.336,0,.63.068.883.203.253.135.462.329.626.584.166.254.295.564.389.929.094.365.141.858.141,1.478,0,.733-.076,1.325-.227,1.776-.15.45-.375.799-.676,1.045-.299.246-.678.368-1.137.368-.602,0-1.075-.216-1.419-.648-.412-.52-.618-1.368-.618-2.541ZM43.559,160.988c0,1.026.12,1.71.36,2.05.24.339.536.509.888.509s.65-.171.89-.512.36-1.024.36-2.047c0-1.03-.12-1.714-.36-2.051-.24-.338-.54-.508-.898-.508-.352,0-.634.149-.845.448-.264.38-.396,1.084-.396,2.111Z"/>
              <path id="ArialMT-2e" class="cls-2" d="M48.057,164.071v-.875h.875v.875h-.875Z"/>
              <path id="ArialMT-30-2" data-name="ArialMT-30" class="cls-2" d="M50.054,160.988c0-.74.076-1.335.228-1.785.152-.451.378-.799.677-1.043.3-.245.678-.367,1.133-.367.336,0,.63.068.883.203.253.135.462.329.626.584.166.254.295.564.389.929.094.365.141.858.141,1.478,0,.733-.076,1.325-.227,1.776-.15.45-.375.799-.676,1.045-.299.246-.678.368-1.137.368-.602,0-1.075-.216-1.419-.648-.412-.52-.618-1.368-.618-2.541ZM50.843,160.988c0,1.026.12,1.71.36,2.05.24.339.536.509.888.509s.65-.171.89-.512.36-1.024.36-2.047c0-1.03-.12-1.714-.36-2.051-.24-.338-.54-.508-.898-.508-.352,0-.634.149-.845.448-.264.38-.396,1.084-.396,2.111Z"/>
            </g>
          </g>
        </g>
        <g id="xtick_2" data-name="xtick 2">
          <g id="line2d_2" data-name="line2d 2">
            <path id="m6684a67992-2" data-name="m6684a67992" class="cls-5" d="M83.926,148.426v5.669"/>
          </g>
          <g id="text_2" data-name="text 2">
            <g>
              <path id="ArialMT-30-3" data-name="ArialMT-30" class="cls-2" d="M78.217,160.988c0-.74.076-1.335.228-1.785.152-.451.378-.799.677-1.043.3-.245.678-.367,1.133-.367.336,0,.63.068.883.203.253.135.462.329.626.584.166.254.295.564.389.929.094.365.141.858.141,1.478,0,.733-.076,1.325-.227,1.776-.15.45-.375.799-.676,1.045-.299.246-.678.368-1.137.368-.602,0-1.075-.216-1.419-.648-.412-.52-.618-1.368-.618-2.541ZM79.005,160.988c0,1.026.12,1.71.36,2.05.24.339.536.509.888.509s.65-.171.89-.512.36-1.024.36-2.047c0-1.03-.12-1.714-.36-2.051-.24-.338-.54-.508-.898-.508-.352,0-.634.149-.845.448-.264.38-.396,1.084-.396,2.111Z"/>
              <path id="ArialMT-2e-2" data-name="ArialMT-2e" class="cls-2" d="M83.504,164.071v-.875h.875v.875h-.875Z"/>
              <path id="ArialMT-32" class="cls-2" d="M89.535,163.333v.738h-4.133c-.005-.185.024-.363.089-.534.106-.281.274-.558.505-.831.232-.273.567-.589,1.006-.947.68-.557,1.139-.998,1.377-1.324.239-.326.359-.634.359-.924,0-.304-.109-.56-.328-.768-.217-.209-.501-.314-.85-.314-.369,0-.665.111-.887.333-.222.221-.334.528-.337.92l-.789-.081c.054-.589.257-1.037.609-1.346.353-.308.827-.463,1.422-.463.6,0,1.074.167,1.423.5.35.332.525.744.525,1.236,0,.25-.051.496-.154.738-.102.241-.272.495-.509.763s-.632.634-1.183,1.1c-.461.387-.757.649-.888.787-.13.137-.238.276-.323.415h3.067Z"/>
            </g>
          </g>
        </g>
        <g id="xtick_3" data-name="xtick 3">
          <g id="line2d_3" data-name="line2d 3">
            <path id="m6684a67992-3" data-name="m6684a67992" class="cls-5" d="M119.372,148.426v5.669"/>
          </g>
          <g id="text_3" data-name="text 3">
            <g>
              <path id="ArialMT-30-4" data-name="ArialMT-30" class="cls-2" d="M113.663,160.988c0-.74.076-1.335.228-1.785.152-.451.378-.799.677-1.043.3-.245.678-.367,1.133-.367.336,0,.63.068.883.203.253.135.462.329.626.584.166.254.295.564.389.929.094.365.141.858.141,1.478,0,.733-.076,1.325-.227,1.776-.15.45-.375.799-.676,1.045-.299.246-.678.368-1.137.368-.602,0-1.075-.216-1.419-.648-.412-.52-.618-1.368-.618-2.541ZM114.452,160.988c0,1.026.12,1.71.36,2.05.24.339.536.509.888.509s.65-.171.89-.512.36-1.024.36-2.047c0-1.03-.12-1.714-.36-2.051-.24-.338-.54-.508-.898-.508-.352,0-.634.149-.845.448-.264.38-.396,1.084-.396,2.111Z"/>
              <path id="ArialMT-2e-3" data-name="ArialMT-2e" class="cls-2" d="M118.951,164.071v-.875h.875v.875h-.875Z"/>
              <path id="ArialMT-34" class="cls-2" d="M123.409,164.071v-1.497h-2.713v-.704l2.854-4.051h.626v4.051h.845v.704h-.845v1.497h-.767ZM123.409,161.87v-2.818l-1.958,2.818h1.958Z"/>
            </g>
          </g>
        </g>
        <g id="xtick_4" data-name="xtick 4">
          <g id="line2d_4" data-name="line2d 4">
            <path id="m6684a67992-4" data-name="m6684a67992" class="cls-5" d="M154.819,148.426v5.669"/>
          </g>
          <g id="text_4" data-name="text 4">
            <g>
              <path id="ArialMT-30-5" data-name="ArialMT-30" class="cls-2" d="M149.11,160.988c0-.74.076-1.335.228-1.785.152-.451.378-.799.677-1.043.3-.245.678-.367,1.133-.367.336,0,.63.068.883.203.253.135.462.329.626.584.166.254.295.564.389.929.094.365.141.858.141,1.478,0,.733-.076,1.325-.227,1.776-.15.45-.375.799-.676,1.045-.299.246-.678.368-1.137.368-.602,0-1.075-.216-1.419-.648-.412-.52-.618-1.368-.618-2.541ZM149.899,160.988c0,1.026.12,1.71.36,2.05.24.339.536.509.888.509s.65-.171.89-.512.36-1.024.36-2.047c0-1.03-.12-1.714-.36-2.051-.24-.338-.54-.508-.898-.508-.352,0-.634.149-.845.448-.264.38-.396,1.084-.396,2.111Z"/>
              <path id="ArialMT-2e-4" data-name="ArialMT-2e" class="cls-2" d="M154.398,164.071v-.875h.875v.875h-.875Z"/>
              <path id="ArialMT-36" class="cls-2" d="M160.377,159.35l-.763.059c-.068-.301-.165-.52-.289-.656-.208-.219-.464-.329-.768-.329-.245,0-.459.068-.644.205-.241.177-.432.434-.572.772-.139.338-.212.82-.217,1.445.185-.281.411-.49.678-.626s.548-.205.841-.205c.511,0,.947.188,1.306.565.36.377.54.863.54,1.46,0,.393-.085.758-.254,1.095-.169.337-.402.595-.697.774-.296.179-.631.269-1.007.269-.64,0-1.161-.235-1.565-.706-.403-.47-.605-1.246-.605-2.327,0-1.208.223-2.087.669-2.635.389-.478.914-.717,1.574-.717.492,0,.895.138,1.209.414.315.276.503.657.565,1.144ZM157.244,162.046c0,.264.056.517.168.759.112.241.269.425.471.553.202.126.414.19.636.19.324,0,.602-.131.835-.392.234-.262.351-.618.351-1.067,0-.432-.116-.772-.347-1.021-.23-.249-.52-.374-.869-.374-.347,0-.641.125-.883.374-.241.248-.362.575-.362.979Z"/>
            </g>
          </g>
        </g>
        <g id="xtick_5" data-name="xtick 5">
          <g id="line2d_5" data-name="line2d 5">
            <path id="m6684a67992-5" data-name="m6684a67992" class="cls-5" d="M190.266,148.426v5.669"/>
          </g>
          <g id="text_5" data-name="text 5">
            <g>
              <path id="ArialMT-30-6" data-name="ArialMT-30" class="cls-2" d="M184.557,160.988c0-.74.076-1.335.228-1.785.152-.451.378-.799.677-1.043.3-.245.678-.367,1.133-.367.336,0,.63.068.883.203.253.135.462.329.626.584.166.254.295.564.389.929.094.365.141.858.141,1.478,0,.733-.076,1.325-.227,1.776-.15.45-.375.799-.676,1.045-.299.246-.678.368-1.137.368-.602,0-1.075-.216-1.419-.648-.412-.52-.618-1.368-.618-2.541ZM185.346,160.988c0,1.026.12,1.71.36,2.05.24.339.536.509.888.509s.65-.171.89-.512.36-1.024.36-2.047c0-1.03-.12-1.714-.36-2.051-.24-.338-.54-.508-.898-.508-.352,0-.634.149-.845.448-.264.38-.396,1.084-.396,2.111Z"/>
              <path id="ArialMT-2e-5" data-name="ArialMT-2e" class="cls-2" d="M189.845,164.071v-.875h.875v.875h-.875Z"/>
              <path id="ArialMT-38" class="cls-2" d="M193.022,160.681c-.318-.117-.555-.284-.708-.5-.153-.217-.229-.475-.229-.777,0-.455.163-.837.49-1.146.328-.31.762-.465,1.305-.465.546,0,.985.159,1.318.476.333.317.5.702.5,1.157,0,.29-.076.543-.229.757-.152.214-.383.379-.692.497.384.125.676.327.876.606.2.278.3.611.3.998,0,.534-.189.983-.568,1.347-.378.364-.875.546-1.492.546s-1.115-.182-1.493-.547c-.379-.366-.568-.822-.568-1.368,0-.407.103-.747.31-1.021.207-.275.5-.462.88-.561ZM192.869,159.379c0,.296.095.538.285.726.191.187.439.281.742.281.296,0,.538-.093.727-.278.189-.187.284-.415.284-.685,0-.282-.098-.519-.293-.711-.195-.192-.437-.288-.726-.288-.293,0-.536.094-.73.283-.193.187-.289.412-.289.673ZM192.622,162.267c0,.219.052.431.156.636s.258.363.463.476c.205.112.425.168.661.168.367,0,.669-.118.908-.353.239-.237.359-.537.359-.901,0-.369-.123-.675-.368-.917-.246-.242-.554-.363-.924-.363-.361,0-.661.12-.898.359-.237.238-.355.537-.355.895Z"/>
            </g>
          </g>
        </g>
        <g id="xtick_6" data-name="xtick 6">
          <g id="line2d_6" data-name="line2d 6">
            <path id="m6684a67992-6" data-name="m6684a67992" class="cls-5" d="M225.713,148.426v5.669"/>
          </g>
          <g id="text_6" data-name="text 6">
            <g>
              <path id="ArialMT-31" class="cls-2" d="M222.895,164.071h-.767v-4.891c-.185.176-.427.352-.727.528s-.57.309-.808.397v-.742c.429-.202.805-.446,1.126-.733.321-.288.549-.566.682-.837h.494v6.278Z"/>
              <path id="ArialMT-2e-6" data-name="ArialMT-2e" class="cls-2" d="M225.292,164.071v-.875h.875v.875h-.875Z"/>
              <path id="ArialMT-30-7" data-name="ArialMT-30" class="cls-2" d="M227.289,160.988c0-.74.076-1.335.228-1.785.152-.451.378-.799.677-1.043.3-.245.678-.367,1.133-.367.336,0,.63.068.883.203.253.135.462.329.626.584.166.254.295.564.389.929.094.365.141.858.141,1.478,0,.733-.076,1.325-.227,1.776-.15.45-.375.799-.676,1.045-.299.246-.678.368-1.137.368-.602,0-1.075-.216-1.419-.648-.412-.52-.618-1.368-.618-2.541ZM228.077,160.988c0,1.026.12,1.71.36,2.05.24.339.536.509.888.509s.65-.171.89-.512.36-1.024.36-2.047c0-1.03-.12-1.714-.36-2.051-.24-.338-.54-.508-.898-.508-.352,0-.634.149-.845.448-.264.38-.396,1.084-.396,2.111Z"/>
            </g>
          </g>
        </g>
        <g id="text_7" data-name="text 7">
          <g>
            <path id="ArialMT-44" class="cls-2" d="M76.73,174.243v-6.252h2.154c.486,0,.857.03,1.114.089.358.083.663.232.916.448.33.279.577.636.74,1.07.164.433.246.928.246,1.485,0,.475-.056.896-.167,1.262-.11.367-.252.671-.426.912-.174.24-.364.429-.57.568-.206.137-.454.242-.745.313s-.626.106-1.004.106h-2.256ZM77.557,173.504h1.335c.412,0,.736-.038.97-.115s.422-.185.561-.325c.197-.196.349-.459.459-.79s.164-.733.164-1.205c0-.654-.107-1.157-.322-1.508s-.475-.586-.782-.706c-.222-.086-.579-.128-1.07-.128h-1.314v4.777Z"/>
            <path id="ArialMT-69" class="cls-2" d="M82.943,168.874v-.883h.768v.883h-.768ZM82.943,174.243v-4.53h.768v4.53h-.768Z"/>
            <path id="ArialMT-73" class="cls-2" d="M84.573,172.89l.759-.119c.043.304.162.537.356.699.195.162.467.243.818.243.352,0,.613-.071.783-.214.171-.144.257-.313.257-.506,0-.173-.076-.309-.227-.409-.105-.068-.366-.155-.785-.259-.562-.143-.952-.266-1.17-.37s-.383-.247-.495-.43c-.112-.184-.168-.387-.168-.609,0-.201.046-.388.138-.56.093-.173.219-.316.378-.43.119-.087.282-.161.487-.222.207-.062.428-.093.665-.093.355,0,.666.051.935.154.269.102.468.241.595.416.128.175.217.408.265.7l-.751.102c-.034-.233-.132-.414-.296-.545-.164-.131-.395-.197-.693-.197-.352,0-.604.058-.755.175-.151.116-.227.253-.227.409,0,.099.031.189.094.269.063.082.161.15.295.205.076.028.303.093.678.195.543.146.922.265,1.136.358.215.092.383.226.505.403.123.176.184.394.184.656,0,.256-.075.497-.224.723-.149.226-.365.4-.647.524-.281.124-.599.186-.954.186-.589,0-1.037-.122-1.346-.367-.308-.245-.505-.607-.591-1.088Z"/>
            <path id="ArialMT-74" class="cls-2" d="M90.923,173.556l.111.678c-.216.045-.409.068-.58.068-.278,0-.495-.044-.648-.132-.153-.088-.261-.204-.323-.348-.063-.144-.094-.446-.094-.906v-2.605h-.562v-.598h.562v-1.122l.763-.46v1.582h.772v.598h-.772v2.648c0,.219.014.36.041.423.027.062.071.111.132.149.061.037.148.056.262.056.086,0,.198-.01.337-.03Z"/>
            <path id="ArialMT-61" class="cls-2" d="M94.63,173.685c-.285.241-.559.412-.822.512-.263.099-.545.149-.846.149-.498,0-.88-.121-1.148-.364s-.401-.554-.401-.932c0-.222.05-.424.151-.607.101-.184.233-.331.397-.442s.348-.195.553-.251c.15-.04.378-.079.682-.116.62-.074,1.076-.161,1.369-.263.003-.106.004-.172.004-.201,0-.313-.073-.534-.218-.662-.196-.173-.487-.259-.873-.259-.361,0-.628.063-.8.19s-.299.35-.382.671l-.751-.102c.068-.321.181-.58.337-.778.156-.197.383-.349.678-.456.296-.107.638-.161,1.028-.161.387,0,.701.045.942.136.242.091.42.206.534.344.114.137.193.312.239.523.025.13.038.366.038.707v1.024c0,.714.016,1.166.049,1.355.033.188.098.369.195.543h-.802c-.079-.159-.13-.345-.153-.558ZM94.566,171.969c-.279.114-.697.211-1.254.291-.316.045-.539.097-.67.154-.13.056-.231.139-.303.248-.071.109-.106.231-.106.364,0,.205.077.375.232.512.156.136.383.205.681.205.296,0,.559-.065.789-.194.23-.129.399-.306.508-.531.083-.174.124-.429.124-.767v-.283Z"/>
            <path id="ArialMT-6e" class="cls-2" d="M96.532,174.243v-4.53h.691v.644c.333-.498.813-.747,1.441-.747.273,0,.524.049.753.147s.401.227.515.386.193.348.239.566c.028.143.042.392.042.747v2.786h-.768v-2.756c0-.313-.03-.547-.09-.702-.059-.155-.165-.278-.317-.37-.152-.093-.33-.139-.535-.139-.328,0-.61.104-.848.311s-.356.601-.356,1.181v2.474h-.767Z"/>
            <path id="ArialMT-63" class="cls-2" d="M104.346,172.583l.755.098c-.083.52-.294.928-.635,1.223-.339.294-.757.441-1.252.441-.62,0-1.118-.202-1.494-.607-.377-.406-.565-.987-.565-1.743,0-.489.081-.916.243-1.283.162-.368.409-.643.74-.826.331-.184.692-.276,1.082-.276.491,0,.893.125,1.206.374.313.248.514.601.602,1.059l-.747.116c-.071-.305-.197-.534-.378-.686-.18-.154-.399-.231-.655-.231-.387,0-.701.139-.943.416-.241.277-.362.715-.362,1.314,0,.609.116,1.051.349,1.327.234.276.538.414.913.414.301,0,.553-.092.755-.277.202-.185.33-.469.385-.853Z"/>
            <path id="ArialMT-65" class="cls-2" d="M108.858,172.784l.793.098c-.125.463-.356.823-.695,1.08-.338.256-.771.384-1.297.384-.662,0-1.188-.204-1.576-.611-.389-.409-.583-.981-.583-1.717,0-.762.196-1.354.588-1.774.393-.421.902-.632,1.527-.632.606,0,1.101.206,1.485.618s.576.992.576,1.74c0,.045-.001.114-.004.205h-3.378c.028.498.169.879.422,1.144.253.264.569.396.947.396.281,0,.521-.074.721-.221.199-.148.357-.384.474-.708ZM106.337,171.543h2.529c-.034-.381-.13-.667-.289-.857-.245-.296-.562-.444-.951-.444-.353,0-.65.118-.89.353s-.373.551-.399.947Z"/>
            <path id="ArialMT-66" class="cls-2" d="M113.224,174.243v-3.932h-.678v-.598h.678v-.482c0-.304.027-.53.082-.678.074-.199.203-.36.389-.483.187-.124.448-.186.783-.186.217,0,.455.025.717.076l-.115.669c-.159-.028-.31-.042-.453-.042-.233,0-.398.05-.494.15-.096.099-.145.285-.145.558v.418h.883v.598h-.883v3.932h-.764Z"/>
            <path id="ArialMT-72" class="cls-2" d="M115.46,174.243v-4.53h.691v.686c.177-.321.339-.533.489-.635.149-.103.313-.154.493-.154.258,0,.521.082.789.247l-.265.712c-.187-.111-.375-.167-.562-.167-.168,0-.319.05-.453.151s-.229.241-.285.42c-.086.273-.128.571-.128.895v2.372h-.767Z"/>
            <path id="ArialMT-6f" class="cls-2" d="M118.092,171.979c0-.839.233-1.46.699-1.864.389-.336.864-.504,1.425-.504.622,0,1.131.204,1.526.613.396.408.594.971.594,1.691,0,.582-.087,1.041-.262,1.376-.175.334-.429.593-.764.778-.334.185-.698.277-1.093.277-.634,0-1.147-.203-1.538-.61-.39-.407-.585-.992-.585-1.756ZM118.88,171.979c0,.58.126,1.014.379,1.302.253.288.571.433.955.433.381,0,.698-.145.951-.434.253-.29.379-.732.379-1.327,0-.56-.127-.985-.382-1.273s-.571-.433-.949-.433c-.384,0-.702.144-.955.431-.253.287-.379.72-.379,1.301Z"/>
            <path id="ArialMT-6d" class="cls-2" d="M123.235,174.243v-4.53h.686v.636c.142-.222.331-.4.566-.535.237-.136.505-.203.807-.203.336,0,.611.07.826.209s.366.334.454.584c.358-.529.825-.793,1.399-.793.449,0,.795.125,1.036.374.242.248.363.631.363,1.149v3.109h-.764v-2.854c0-.307-.025-.527-.075-.662-.049-.136-.139-.244-.27-.326-.13-.083-.283-.124-.46-.124-.318,0-.583.106-.794.318-.21.211-.315.55-.315,1.017v2.631h-.767v-2.942c0-.341-.063-.597-.188-.767-.125-.171-.329-.257-.614-.257-.216,0-.415.057-.599.171-.183.114-.316.28-.399.5-.083.218-.124.534-.124.946v2.35h-.767Z"/>
            <path id="ArialMT-32-2" data-name="ArialMT-32" class="cls-2" d="M136.759,173.504v.738h-4.133c-.005-.185.024-.363.089-.534.106-.281.274-.558.505-.831.232-.273.567-.589,1.006-.947.68-.557,1.139-.998,1.377-1.324.239-.326.359-.634.359-.924,0-.304-.109-.56-.328-.768-.217-.209-.501-.314-.85-.314-.369,0-.665.111-.887.333-.222.221-.334.528-.337.92l-.789-.081c.054-.589.257-1.037.609-1.346.353-.308.827-.463,1.422-.463.6,0,1.074.167,1.423.5.35.332.525.744.525,1.236,0,.25-.051.496-.154.738-.102.241-.272.495-.509.763s-.632.634-1.183,1.1c-.461.387-.757.649-.888.787-.13.137-.238.276-.323.415h3.067Z"/>
            <path id="ArialMT-52" class="cls-2" d="M137.906,174.243v-6.252h2.772c.558,0,.981.056,1.271.169.29.112.522.31.696.595.174.284.261.598.261.942,0,.443-.144.817-.431,1.122-.288.304-.731.497-1.331.58.219.105.386.208.5.311.241.221.47.498.686.831l1.088,1.702h-1.041l-.827-1.301c-.242-.376-.441-.663-.598-.861-.156-.199-.295-.338-.419-.418-.124-.08-.25-.136-.378-.168-.094-.019-.247-.029-.46-.029h-.961v2.776h-.827ZM138.733,170.75h1.78c.378,0,.673-.039.886-.117.214-.078.376-.203.487-.375s.167-.359.167-.561c0-.296-.107-.539-.322-.729-.215-.191-.554-.287-1.018-.287h-1.979v2.069Z"/>
            <path id="ArialMT-2d" class="cls-2" d="M146.231,172.366v-.772h2.358v.772h-2.358Z"/>
            <path id="ArialMT-36-2" data-name="ArialMT-36" class="cls-2" d="M155.635,169.522l-.763.059c-.068-.301-.165-.52-.289-.656-.208-.219-.464-.329-.768-.329-.245,0-.459.068-.644.205-.241.177-.432.434-.572.772-.139.338-.212.82-.217,1.445.185-.281.411-.49.678-.626s.548-.205.841-.205c.511,0,.947.188,1.306.565.36.377.54.863.54,1.46,0,.393-.085.758-.254,1.095-.169.337-.402.595-.697.774-.296.179-.631.269-1.007.269-.64,0-1.161-.235-1.565-.706-.403-.47-.605-1.246-.605-2.327,0-1.208.223-2.087.669-2.635.389-.478.914-.717,1.574-.717.492,0,.895.138,1.209.414.315.276.503.657.565,1.144ZM152.501,172.217c0,.264.056.517.168.759.112.241.269.425.471.553.202.126.414.19.636.19.324,0,.602-.131.835-.392.234-.262.351-.618.351-1.067,0-.432-.116-.772-.347-1.021-.23-.249-.52-.374-.869-.374-.347,0-.641.125-.883.374-.241.248-.362.575-.362.979Z"/>
            <path id="ArialMT-52-2" data-name="ArialMT-52" class="cls-2" d="M156.834,174.243v-6.252h2.772c.558,0,.981.056,1.271.169.29.112.522.31.696.595.174.284.261.598.261.942,0,.443-.144.817-.431,1.122-.288.304-.731.497-1.331.58.219.105.386.208.5.311.241.221.47.498.686.831l1.088,1.702h-1.041l-.827-1.301c-.242-.376-.441-.663-.598-.861-.156-.199-.295-.338-.419-.418-.124-.08-.25-.136-.378-.168-.094-.019-.247-.029-.46-.029h-.961v2.776h-.827ZM157.661,170.75h1.78c.378,0,.673-.039.886-.117.214-.078.376-.203.487-.375s.167-.359.167-.561c0-.296-.107-.539-.322-.729-.215-.191-.554-.287-1.018-.287h-1.979v2.069Z"/>
            <path id="ArialMT-61-2" data-name="ArialMT-61" class="cls-2" d="M168.414,173.685c-.285.241-.559.412-.822.512-.263.099-.545.149-.846.149-.498,0-.88-.121-1.148-.364s-.401-.554-.401-.932c0-.222.05-.424.151-.607.101-.184.233-.331.397-.442s.348-.195.553-.251c.15-.04.378-.079.682-.116.62-.074,1.076-.161,1.369-.263.003-.106.004-.172.004-.201,0-.313-.073-.534-.218-.662-.196-.173-.487-.259-.873-.259-.361,0-.628.063-.8.19s-.299.35-.382.671l-.751-.102c.068-.321.181-.58.337-.778.156-.197.383-.349.678-.456.296-.107.638-.161,1.028-.161.387,0,.701.045.942.136.242.091.42.206.534.344.114.137.193.312.239.523.025.13.038.366.038.707v1.024c0,.714.016,1.166.049,1.355.033.188.098.369.195.543h-.802c-.079-.159-.13-.345-.153-.558ZM168.35,171.969c-.279.114-.697.211-1.254.291-.316.045-.539.097-.67.154-.13.056-.231.139-.303.248-.071.109-.106.231-.106.364,0,.205.077.375.232.512.156.136.383.205.681.205.296,0,.559-.065.789-.194.23-.129.399-.306.508-.531.083-.174.124-.429.124-.767v-.283Z"/>
            <path id="ArialMT-78" class="cls-2" d="M169.804,174.243l1.654-2.354-1.53-2.175h.959l.695,1.062c.131.202.236.371.315.508.126-.187.241-.353.345-.498l.764-1.071h.917l-1.565,2.133,1.684,2.397h-.942l-.931-1.407-.247-.379-1.19,1.787h-.929Z"/>
            <path id="ArialMT-69-2" data-name="ArialMT-69" class="cls-2" d="M174.687,168.874v-.883h.768v.883h-.768ZM174.687,174.243v-4.53h.768v4.53h-.768Z"/>
            <path id="ArialMT-73-2" data-name="ArialMT-73" class="cls-2" d="M176.317,172.89l.759-.119c.043.304.162.537.356.699.195.162.467.243.818.243.352,0,.613-.071.783-.214.171-.144.257-.313.257-.506,0-.173-.076-.309-.227-.409-.105-.068-.366-.155-.785-.259-.562-.143-.952-.266-1.17-.37s-.383-.247-.495-.43c-.112-.184-.168-.387-.168-.609,0-.201.046-.388.138-.56.093-.173.219-.316.378-.43.119-.087.282-.161.487-.222.207-.062.428-.093.665-.093.355,0,.666.051.935.154.269.102.468.241.595.416.128.175.217.408.265.7l-.751.102c-.034-.233-.132-.414-.296-.545-.164-.131-.395-.197-.693-.197-.352,0-.604.058-.755.175-.151.116-.227.253-.227.409,0,.099.031.189.094.269.063.082.161.15.295.205.076.028.303.093.678.195.543.146.922.265,1.136.358.215.092.383.226.505.403.123.176.184.394.184.656,0,.256-.075.497-.224.723-.149.226-.365.4-.647.524-.281.124-.599.186-.954.186-.589,0-1.037-.122-1.346-.367-.308-.245-.505-.607-.591-1.088Z"/>
          </g>
        </g>
      </g>
      <g id="matplotlib.axis_2" data-name="matplotlib.axis 2">
        <g id="ytick_1" data-name="ytick 1">
          <g id="line2d_7" data-name="line2d 7">
            <path id="m4934ff377e" class="cls-5" d="M30.754,148.426h-5.669"/>
          </g>
          <g id="text_8" data-name="text 8">
            <g>
              <path id="ArialMT-30-8" data-name="ArialMT-30" class="cls-2" d="M10.561,148.469c0-.74.076-1.335.228-1.785.152-.451.378-.799.677-1.043.3-.245.678-.367,1.133-.367.336,0,.63.068.883.203.253.135.462.329.626.584.166.254.295.564.389.929.094.365.141.858.141,1.478,0,.733-.076,1.325-.227,1.776-.15.45-.375.799-.676,1.045-.299.246-.678.368-1.137.368-.602,0-1.075-.216-1.419-.648-.412-.52-.618-1.368-.618-2.541ZM11.35,148.469c0,1.026.12,1.71.36,2.05.24.339.536.509.888.509s.65-.171.89-.512.36-1.024.36-2.047c0-1.03-.12-1.714-.36-2.051-.24-.338-.54-.508-.898-.508-.352,0-.634.149-.845.448-.264.38-.396,1.084-.396,2.111Z"/>
              <path id="ArialMT-2e-7" data-name="ArialMT-2e" class="cls-2" d="M15.848,151.553v-.875h.875v.875h-.875Z"/>
              <path id="ArialMT-30-9" data-name="ArialMT-30" class="cls-2" d="M17.845,148.469c0-.74.076-1.335.228-1.785.152-.451.378-.799.677-1.043.3-.245.678-.367,1.133-.367.336,0,.63.068.883.203.253.135.462.329.626.584.166.254.295.564.389.929.094.365.141.858.141,1.478,0,.733-.076,1.325-.227,1.776-.15.45-.375.799-.676,1.045-.299.246-.678.368-1.137.368-.602,0-1.075-.216-1.419-.648-.412-.52-.618-1.368-.618-2.541ZM18.634,148.469c0,1.026.12,1.71.36,2.05.24.339.536.509.888.509s.65-.171.89-.512.36-1.024.36-2.047c0-1.03-.12-1.714-.36-2.051-.24-.338-.54-.508-.898-.508-.352,0-.634.149-.845.448-.264.38-.396,1.084-.396,2.111Z"/>
            </g>
          </g>
        </g>
        <g id="ytick_2" data-name="ytick 2">
          <g id="line2d_8" data-name="line2d 8">
            <path id="m4934ff377e-2" data-name="m4934ff377e" class="cls-5" d="M30.754,124.214h-5.669"/>
          </g>
          <g id="text_9" data-name="text 9">
            <g>
              <path id="ArialMT-30-10" data-name="ArialMT-30" class="cls-2" d="M10.561,124.257c0-.74.076-1.335.228-1.785.152-.451.378-.799.677-1.043.3-.245.678-.367,1.133-.367.336,0,.63.068.883.203.253.135.462.329.626.584.166.254.295.564.389.929.094.365.141.858.141,1.478,0,.733-.076,1.325-.227,1.776-.15.45-.375.799-.676,1.045-.299.246-.678.368-1.137.368-.602,0-1.075-.216-1.419-.648-.412-.52-.618-1.368-.618-2.541ZM11.35,124.257c0,1.026.12,1.71.36,2.05.24.339.536.509.888.509s.65-.171.89-.512.36-1.024.36-2.047c0-1.03-.12-1.714-.36-2.051-.24-.338-.54-.508-.898-.508-.352,0-.634.149-.845.448-.264.38-.396,1.084-.396,2.111Z"/>
              <path id="ArialMT-2e-8" data-name="ArialMT-2e" class="cls-2" d="M15.848,127.34v-.875h.875v.875h-.875Z"/>
              <path id="ArialMT-32-3" data-name="ArialMT-32" class="cls-2" d="M21.88,126.602v.738h-4.133c-.005-.185.024-.363.089-.534.106-.281.274-.558.505-.831.232-.273.567-.589,1.006-.947.68-.557,1.139-.998,1.377-1.324.239-.326.359-.634.359-.924,0-.304-.109-.56-.328-.768-.217-.209-.501-.314-.85-.314-.369,0-.665.111-.887.333-.222.221-.334.528-.337.92l-.789-.081c.054-.589.257-1.037.609-1.346.353-.308.827-.463,1.422-.463.6,0,1.074.167,1.423.5.35.332.525.744.525,1.236,0,.25-.051.496-.154.738-.102.241-.272.495-.509.763s-.632.634-1.183,1.1c-.461.387-.757.649-.888.787-.13.137-.238.276-.323.415h3.067Z"/>
            </g>
          </g>
        </g>
        <g id="ytick_3" data-name="ytick 3">
          <g id="line2d_9" data-name="line2d 9">
            <path id="m4934ff377e-3" data-name="m4934ff377e" class="cls-5" d="M30.754,100.002h-5.669"/>
          </g>
          <g id="text_10" data-name="text 10">
            <g>
              <path id="ArialMT-30-11" data-name="ArialMT-30" class="cls-2" d="M10.561,100.045c0-.74.076-1.335.228-1.785.152-.451.378-.799.677-1.043.3-.245.678-.367,1.133-.367.336,0,.63.068.883.203.253.135.462.329.626.584.166.254.295.564.389.929.094.365.141.858.141,1.478,0,.733-.076,1.325-.227,1.776-.15.45-.375.799-.676,1.045-.299.246-.678.368-1.137.368-.602,0-1.075-.216-1.419-.648-.412-.52-.618-1.368-.618-2.541ZM11.35,100.045c0,1.026.12,1.71.36,2.05.24.339.536.509.888.509s.65-.171.89-.512.36-1.024.36-2.047c0-1.03-.12-1.714-.36-2.051-.24-.338-.54-.508-.898-.508-.352,0-.634.149-.845.448-.264.38-.396,1.084-.396,2.111Z"/>
              <path id="ArialMT-2e-9" data-name="ArialMT-2e" class="cls-2" d="M15.848,103.128v-.875h.875v.875h-.875Z"/>
              <path id="ArialMT-34-2" data-name="ArialMT-34" class="cls-2" d="M20.306,103.128v-1.497h-2.713v-.704l2.854-4.051h.626v4.051h.845v.704h-.845v1.497h-.767ZM20.306,100.926v-2.818l-1.958,2.818h1.958Z"/>
            </g>
          </g>
        </g>
        <g id="ytick_4" data-name="ytick 4">
          <g id="line2d_10" data-name="line2d 10">
            <path id="m4934ff377e-4" data-name="m4934ff377e" class="cls-5" d="M30.754,75.789h-5.669"/>
          </g>
          <g id="text_11" data-name="text 11">
            <g>
              <path id="ArialMT-30-12" data-name="ArialMT-30" class="cls-2" d="M10.561,75.832c0-.74.076-1.335.228-1.785.152-.451.378-.799.677-1.043.3-.245.678-.367,1.133-.367.336,0,.63.068.883.203.253.135.462.329.626.584.166.254.295.564.389.929.094.365.141.858.141,1.478,0,.733-.076,1.325-.227,1.776-.15.45-.375.799-.676,1.045-.299.246-.678.368-1.137.368-.602,0-1.075-.216-1.419-.648-.412-.52-.618-1.368-.618-2.541ZM11.35,75.832c0,1.026.12,1.71.36,2.05.24.339.536.509.888.509s.65-.171.89-.512.36-1.024.36-2.047c0-1.03-.12-1.714-.36-2.051-.24-.338-.54-.508-.898-.508-.352,0-.634.149-.845.448-.264.38-.396,1.084-.396,2.111Z"/>
              <path id="ArialMT-2e-10" data-name="ArialMT-2e" class="cls-2" d="M15.848,78.915v-.875h.875v.875h-.875Z"/>
              <path id="ArialMT-36-3" data-name="ArialMT-36" class="cls-2" d="M21.828,74.194l-.763.059c-.068-.301-.165-.52-.289-.656-.208-.219-.464-.329-.768-.329-.245,0-.459.068-.644.205-.241.177-.432.434-.572.772-.139.338-.212.82-.217,1.445.185-.281.411-.49.678-.626s.548-.205.841-.205c.511,0,.947.188,1.306.565.36.377.54.863.54,1.46,0,.393-.085.758-.254,1.095-.169.337-.402.595-.697.774-.296.179-.631.269-1.007.269-.64,0-1.161-.235-1.565-.706-.403-.47-.605-1.246-.605-2.327,0-1.208.223-2.087.669-2.635.389-.478.914-.717,1.574-.717.492,0,.895.138,1.209.414.315.276.503.657.565,1.144ZM18.694,76.89c0,.264.056.517.168.759.112.241.269.425.471.553.202.126.414.19.636.19.324,0,.602-.131.835-.392.234-.262.351-.618.351-1.067,0-.432-.116-.772-.347-1.021-.23-.249-.52-.374-.869-.374-.347,0-.641.125-.883.374-.241.248-.362.575-.362.979Z"/>
            </g>
          </g>
        </g>
        <g id="ytick_5" data-name="ytick 5">
          <g id="line2d_11" data-name="line2d 11">
            <path id="m4934ff377e-5" data-name="m4934ff377e" class="cls-5" d="M30.754,51.577h-5.669"/>
          </g>
          <g id="text_12" data-name="text 12">
            <g>
              <path id="ArialMT-30-13" data-name="ArialMT-30" class="cls-2" d="M10.561,51.62c0-.74.076-1.335.228-1.785.152-.451.378-.799.677-1.043.3-.245.678-.367,1.133-.367.336,0,.63.068.883.203.253.135.462.329.626.584.166.254.295.564.389.929.094.365.141.858.141,1.478,0,.733-.076,1.325-.227,1.776-.15.45-.375.799-.676,1.045-.299.246-.678.368-1.137.368-.602,0-1.075-.216-1.419-.648-.412-.52-.618-1.368-.618-2.541ZM11.35,51.62c0,1.026.12,1.71.36,2.05.24.339.536.509.888.509s.65-.171.89-.512.36-1.024.36-2.047c0-1.03-.12-1.714-.36-2.051-.24-.338-.54-.508-.898-.508-.352,0-.634.149-.845.448-.264.38-.396,1.084-.396,2.111Z"/>
              <path id="ArialMT-2e-11" data-name="ArialMT-2e" class="cls-2" d="M15.848,54.703v-.875h.875v.875h-.875Z"/>
              <path id="ArialMT-38-2" data-name="ArialMT-38" class="cls-2" d="M19.026,51.313c-.318-.117-.555-.284-.708-.5-.153-.217-.229-.475-.229-.777,0-.455.163-.837.49-1.146.328-.31.762-.465,1.305-.465.546,0,.985.159,1.318.476.333.317.5.702.5,1.157,0,.29-.076.543-.229.757-.152.214-.383.379-.692.497.384.125.676.327.876.606.2.278.3.611.3.998,0,.534-.189.983-.568,1.347-.378.364-.875.546-1.492.546s-1.115-.182-1.493-.547c-.379-.366-.568-.822-.568-1.368,0-.407.103-.747.31-1.021.207-.275.5-.462.88-.561ZM18.873,50.011c0,.296.095.538.285.726.191.187.439.281.742.281.296,0,.538-.093.727-.278.189-.187.284-.415.284-.685,0-.282-.098-.519-.293-.711-.195-.192-.437-.288-.726-.288-.293,0-.536.094-.73.283-.193.187-.289.412-.289.673ZM18.626,52.899c0,.219.052.431.156.636s.258.363.463.476c.205.112.425.168.661.168.367,0,.669-.118.908-.353.239-.237.359-.537.359-.901,0-.369-.123-.675-.368-.917-.246-.242-.554-.363-.924-.363-.361,0-.661.12-.898.359-.237.238-.355.537-.355.895Z"/>
            </g>
          </g>
        </g>
        <g id="ytick_6" data-name="ytick 6">
          <g id="line2d_12" data-name="line2d 12">
            <path id="m4934ff377e-6" data-name="m4934ff377e" class="cls-5" d="M30.754,27.364h-5.669"/>
          </g>
          <g id="text_13" data-name="text 13">
            <g>
              <path id="ArialMT-31-2" data-name="ArialMT-31" class="cls-2" d="M13.451,30.49h-.767v-4.891c-.185.176-.427.352-.727.528s-.57.309-.808.397v-.742c.429-.202.805-.446,1.126-.733.321-.288.549-.566.682-.837h.494v6.278Z"/>
              <path id="ArialMT-2e-12" data-name="ArialMT-2e" class="cls-2" d="M15.848,30.49v-.875h.875v.875h-.875Z"/>
              <path id="ArialMT-30-14" data-name="ArialMT-30" class="cls-2" d="M17.845,27.407c0-.74.076-1.335.228-1.785.152-.451.378-.799.677-1.043.3-.245.678-.367,1.133-.367.336,0,.63.068.883.203.253.135.462.329.626.584.166.254.295.564.389.929.094.365.141.858.141,1.478,0,.733-.076,1.325-.227,1.776-.15.45-.375.799-.676,1.045-.299.246-.678.368-1.137.368-.602,0-1.075-.216-1.419-.648-.412-.52-.618-1.368-.618-2.541ZM18.634,27.407c0,1.026.12,1.71.36,2.05.24.339.536.509.888.509s.65-.171.89-.512.36-1.024.36-2.047c0-1.03-.12-1.714-.36-2.051-.24-.338-.54-.508-.898-.508-.352,0-.634.149-.845.448-.264.38-.396,1.084-.396,2.111Z"/>
            </g>
          </g>
        </g>
        <g id="ytick_7" data-name="ytick 7">
          <g id="line2d_13" data-name="line2d 13">
            <path id="m4934ff377e-7" data-name="m4934ff377e" class="cls-5" d="M30.754,3.152h-5.669"/>
          </g>
          <g id="text_14" data-name="text 14">
            <g>
              <path id="ArialMT-31-3" data-name="ArialMT-31" class="cls-2" d="M13.451,6.278h-.767V1.387c-.185.176-.427.352-.727.528s-.57.309-.808.397v-.742c.429-.202.805-.446,1.126-.733.321-.288.549-.566.682-.837h.494v6.278Z"/>
              <path id="ArialMT-2e-13" data-name="ArialMT-2e" class="cls-2" d="M15.848,6.278v-.875h.875v.875h-.875Z"/>
              <path id="ArialMT-32-4" data-name="ArialMT-32" class="cls-2" d="M21.88,5.54v.738h-4.133c-.005-.185.024-.363.089-.534.106-.281.274-.558.505-.831.232-.273.567-.589,1.006-.947.68-.557,1.139-.998,1.377-1.324.239-.326.359-.634.359-.924,0-.304-.109-.56-.328-.768-.217-.209-.501-.314-.85-.314-.369,0-.665.111-.887.333-.222.221-.334.528-.337.92l-.789-.081c.054-.589.257-1.037.609-1.346.353-.308.827-.463,1.422-.463.6,0,1.074.167,1.423.5.35.332.525.744.525,1.236,0,.25-.051.496-.154.738-.102.241-.272.495-.509.763s-.632.634-1.183,1.1c-.461.387-.757.649-.888.787-.13.137-.238.276-.323.415h3.067Z"/>
            </g>
          </g>
        </g>
        <g id="text_15" data-name="text 15">
          <g>
            <path id="ArialMT-50" class="cls-2" d="M6.278,121.961H.026v-2.358c0-.415.02-.732.059-.951.052-.307.15-.564.293-.771.143-.208.344-.376.603-.502.258-.126.543-.19.853-.19.531,0,.981.169,1.35.508.368.338.551.95.551,1.834v1.604h2.543v.827ZM2.998,121.134v-1.616c0-.535-.1-.915-.299-1.14s-.479-.337-.841-.337c-.261,0-.485.066-.67.199-.187.132-.31.306-.37.521-.037.14-.056.398-.056.772v1.6h2.236Z"/>
            <path id="ArialMT-6f-2" data-name="ArialMT-6f" class="cls-2" d="M4.014,116.519c-.839,0-1.46-.233-1.864-.699-.336-.389-.504-.864-.504-1.425,0-.622.204-1.131.613-1.526.408-.396.971-.594,1.691-.594.582,0,1.041.087,1.376.262.334.175.593.429.778.764.185.334.277.698.277,1.093,0,.634-.203,1.147-.61,1.538-.407.39-.992.585-1.756.585ZM4.014,115.73c.58,0,1.014-.126,1.302-.379.288-.253.433-.571.433-.955,0-.381-.145-.698-.434-.951-.29-.253-.732-.379-1.327-.379-.56,0-.985.127-1.273.382s-.433.571-.433.949c0,.384.144.702.431.955.287.253.72.379,1.301.379Z"/>
            <path id="ArialMT-73-3" data-name="ArialMT-73" class="cls-2" d="M4.926,111.683l-.119-.759c.304-.043.537-.161.699-.356.162-.195.243-.467.243-.818,0-.352-.071-.613-.214-.783-.144-.171-.313-.257-.506-.257-.173,0-.309.076-.409.227-.068.105-.155.366-.259.785-.143.562-.266.952-.37,1.17s-.247.383-.43.495c-.184.112-.387.168-.609.168-.201,0-.388-.046-.56-.138-.173-.093-.316-.219-.43-.378-.087-.119-.162-.282-.222-.487-.062-.207-.093-.428-.093-.665,0-.355.051-.666.154-.935.102-.269.241-.468.416-.595.175-.128.408-.217.7-.265l.102.751c-.233.034-.414.132-.545.296-.131.164-.197.395-.197.693,0,.352.058.604.175.755.116.151.253.227.409.227.099,0,.189-.031.269-.094.082-.063.15-.161.205-.295.028-.076.093-.303.195-.678.146-.543.265-.922.358-1.136.092-.215.226-.383.403-.505.176-.123.394-.184.656-.184.256,0,.497.075.723.224.226.149.4.365.524.647.124.281.186.599.186.954,0,.589-.122,1.037-.367,1.346-.245.308-.607.505-1.088.591Z"/>
            <path id="ArialMT-69-3" data-name="ArialMT-69" class="cls-2" d="M.909,107.004H.026v-.768h.883v.768ZM6.278,107.004H1.748v-.768h4.53v.768Z"/>
            <path id="ArialMT-74-2" data-name="ArialMT-74" class="cls-2" d="M5.592,103.392l.678-.111c.045.216.068.409.068.58,0,.278-.044.495-.132.648-.088.153-.204.261-.348.323-.144.063-.446.094-.906.094h-2.605v.562h-.598v-.562H.626l-.46-.763h1.582v-.772h.598v.772h2.648c.219,0,.36-.014.423-.041.062-.027.111-.071.149-.132.037-.061.056-.148.056-.262,0-.086-.01-.198-.03-.337Z"/>
            <path id="ArialMT-69-4" data-name="ArialMT-69" class="cls-2" d="M.909,102.637H.026v-.768h.883v.768ZM6.278,102.637H1.748v-.768h4.53v.768Z"/>
            <path id="ArialMT-6f-3" data-name="ArialMT-6f" class="cls-2" d="M4.014,100.986c-.839,0-1.46-.233-1.864-.699-.336-.389-.504-.864-.504-1.425,0-.622.204-1.131.613-1.526.408-.396.971-.594,1.691-.594.582,0,1.041.087,1.376.262.334.175.593.429.778.764.185.334.277.698.277,1.093,0,.634-.203,1.147-.61,1.538-.407.39-.992.585-1.756.585ZM4.014,100.197c.58,0,1.014-.126,1.302-.379.288-.253.433-.571.433-.955,0-.381-.145-.698-.434-.951-.29-.253-.732-.379-1.327-.379-.56,0-.985.127-1.273.382s-.433.571-.433.949c0,.384.144.702.431.955.287.253.72.379,1.301.379Z"/>
            <path id="ArialMT-6e-2" data-name="ArialMT-6e" class="cls-2" d="M6.278,95.843H1.748v-.691h.644c-.498-.333-.747-.813-.747-1.441,0-.273.049-.524.147-.753s.227-.401.386-.515.348-.193.566-.239c.143-.028.392-.042.747-.042h2.786v.768h-2.756c-.313,0-.547.03-.702.09-.155.059-.278.165-.37.317-.093.152-.139.33-.139.535,0,.328.104.61.311.848s.601.356,1.181.356h2.474v.767Z"/>
            <path id="ArialMT-6f-4" data-name="ArialMT-6f" class="cls-2" d="M4.014,88.844c-.839,0-1.46-.233-1.864-.699-.336-.389-.504-.864-.504-1.425,0-.622.204-1.131.613-1.526.408-.396.971-.594,1.691-.594.582,0,1.041.087,1.376.262.334.175.593.429.778.764.185.334.277.698.277,1.093,0,.634-.203,1.147-.61,1.538-.407.39-.992.585-1.756.585ZM4.014,88.055c.58,0,1.014-.126,1.302-.379.288-.253.433-.571.433-.955,0-.381-.145-.698-.434-.951-.29-.253-.732-.379-1.327-.379-.56,0-.985.127-1.273.382s-.433.571-.433.949c0,.384.144.702.431.955.287.253.72.379,1.301.379Z"/>
            <path id="ArialMT-6e-3" data-name="ArialMT-6e" class="cls-2" d="M6.278,83.701H1.748v-.691h.644c-.498-.333-.747-.813-.747-1.441,0-.273.049-.524.147-.753s.227-.401.386-.515.348-.193.566-.239c.143-.028.392-.042.747-.042h2.786v.768h-2.756c-.313,0-.547.03-.702.09-.155.059-.278.165-.37.317-.093.152-.139.33-.139.535,0,.328.104.61.311.848s.601.356,1.181.356h2.474v.767Z"/>
            <path id="ArialMT-32-5" data-name="ArialMT-32" class="cls-2" d="M5.54,72.595h.738v4.133c-.185.005-.363-.024-.534-.089-.281-.106-.558-.274-.831-.505-.273-.232-.589-.567-.947-1.006-.557-.68-.998-1.139-1.324-1.377-.326-.239-.634-.359-.924-.359-.304,0-.56.109-.768.328-.209.217-.314.501-.314.85,0,.369.111.665.333.887.221.222.528.334.92.337l-.081.789c-.589-.054-1.037-.257-1.346-.609-.308-.353-.463-.827-.463-1.422,0-.6.167-1.074.5-1.423.332-.35.744-.525,1.237-.525.25,0,.496.051.738.154.241.102.495.272.763.509s.634.632,1.1,1.183c.387.461.649.757.787.888.137.13.276.238.415.323v-3.067Z"/>
            <path id="ArialMT-52-3" data-name="ArialMT-52" class="cls-2" d="M6.278,71.448H.026v-2.772c0-.558.056-.981.169-1.271.112-.29.31-.522.595-.696.284-.174.598-.261.942-.261.443,0,.817.144,1.122.431.304.288.497.731.58,1.331.105-.219.208-.386.311-.5.221-.241.498-.47.831-.686l1.702-1.088v1.041l-1.301.827c-.376.242-.663.441-.861.598-.199.156-.338.295-.418.419-.08.124-.136.25-.168.378-.019.094-.029.247-.029.46v.961h2.776v.827ZM2.786,70.621v-1.78c0-.378-.039-.673-.117-.886-.078-.214-.203-.376-.375-.487s-.359-.167-.561-.167c-.296,0-.539.107-.729.322-.191.215-.287.554-.287,1.018v1.979h2.069Z"/>
            <path id="ArialMT-2d-2" data-name="ArialMT-2d" class="cls-2" d="M4.401,63.122h-.772v-2.358h.772v2.358Z"/>
            <path id="ArialMT-36-4" data-name="ArialMT-36" class="cls-2" d="M1.557,53.719l.059.763c-.301.068-.52.165-.656.289-.219.208-.329.464-.329.768,0,.245.068.459.205.644.177.241.434.432.772.572.338.139.82.212,1.445.217-.281-.185-.49-.411-.626-.678s-.205-.548-.205-.841c0-.511.188-.947.565-1.306.377-.36.863-.54,1.46-.54.393,0,.758.085,1.095.254.337.169.595.402.774.697.179.296.269.631.269,1.007,0,.64-.235,1.161-.706,1.565-.47.403-1.246.605-2.327.605-1.208,0-2.087-.223-2.635-.669-.478-.389-.717-.914-.717-1.574,0-.492.138-.895.414-1.209.276-.315.657-.503,1.144-.565ZM4.253,56.852c.264,0,.517-.056.759-.168.241-.112.425-.269.553-.471.126-.202.19-.414.19-.636,0-.324-.131-.602-.392-.835-.262-.234-.618-.351-1.067-.351-.432,0-.772.116-1.021.347-.249.23-.374.52-.374.869,0,.347.125.641.374.883.248.241.575.362.979.362Z"/>
            <path id="ArialMT-52-4" data-name="ArialMT-52" class="cls-2" d="M6.278,52.52H.026v-2.772c0-.558.056-.981.169-1.271.112-.29.31-.522.595-.696.284-.174.598-.261.942-.261.443,0,.817.144,1.122.431.304.288.497.731.58,1.331.105-.219.208-.386.311-.5.221-.241.498-.47.831-.686l1.702-1.088v1.041l-1.301.827c-.376.242-.663.441-.861.598-.199.156-.338.295-.418.419-.08.124-.136.25-.168.378-.019.094-.029.247-.029.46v.961h2.776v.827ZM2.786,51.693v-1.78c0-.378-.039-.673-.117-.886-.078-.214-.203-.376-.375-.487s-.359-.167-.561-.167c-.296,0-.539.107-.729.322-.191.215-.287.554-.287,1.018v1.979h2.069Z"/>
            <path id="ArialMT-61-3" data-name="ArialMT-61" class="cls-2" d="M5.72,40.94c.241.285.412.559.512.822.099.263.149.545.149.846,0,.498-.121.88-.364,1.148s-.554.401-.932.401c-.222,0-.424-.05-.607-.151-.184-.101-.331-.233-.442-.397s-.195-.348-.251-.553c-.04-.15-.079-.378-.116-.682-.074-.62-.162-1.076-.263-1.369-.106-.003-.172-.004-.201-.004-.313,0-.534.073-.662.218-.173.196-.259.487-.259.873,0,.361.063.628.19.8s.35.299.671.382l-.102.751c-.321-.068-.58-.181-.778-.337-.197-.156-.349-.383-.456-.678-.107-.296-.161-.638-.161-1.028,0-.387.045-.701.136-.942.091-.242.206-.42.344-.534.137-.114.312-.193.523-.239.13-.025.366-.038.707-.038h1.024c.714,0,1.166-.016,1.355-.049.188-.033.369-.098.543-.195v.802c-.159.079-.345.13-.558.153ZM4.004,41.004c.114.279.211.697.291,1.254.045.316.097.539.154.67.056.13.139.231.248.303.109.071.231.106.364.106.205,0,.375-.077.512-.232.136-.156.205-.383.205-.681,0-.296-.065-.559-.194-.789-.129-.23-.306-.399-.531-.508-.174-.083-.429-.124-.767-.124h-.283Z"/>
            <path id="ArialMT-78-2" data-name="ArialMT-78" class="cls-2" d="M6.278,39.55l-2.354-1.654-2.175,1.53v-.959l1.062-.695c.202-.131.371-.236.508-.315-.187-.126-.353-.241-.498-.345l-1.071-.764v-.917l2.133,1.565,2.397-1.684v.942l-1.407.931-.379.247,1.787,1.19v.929Z"/>
            <path id="ArialMT-69-5" data-name="ArialMT-69" class="cls-2" d="M.909,34.666H.026v-.768h.883v.768ZM6.278,34.666H1.748v-.768h4.53v.768Z"/>
            <path id="ArialMT-73-4" data-name="ArialMT-73" class="cls-2" d="M4.926,33.037l-.119-.759c.304-.043.537-.161.699-.356.162-.195.243-.467.243-.818,0-.352-.071-.613-.214-.783-.144-.171-.313-.257-.506-.257-.173,0-.309.076-.409.227-.068.105-.155.366-.259.785-.143.562-.266.952-.37,1.17s-.247.383-.43.495c-.184.112-.387.168-.609.168-.201,0-.388-.046-.56-.138-.173-.093-.316-.219-.43-.378-.087-.119-.162-.282-.222-.487-.062-.207-.093-.428-.093-.665,0-.355.051-.666.154-.935.102-.269.241-.468.416-.595.175-.128.408-.217.7-.265l.102.751c-.233.034-.414.132-.545.296-.131.164-.197.395-.197.693,0,.352.058.604.175.755.116.151.253.227.409.227.099,0,.189-.031.269-.094.082-.063.15-.161.205-.295.028-.076.093-.303.195-.678.146-.543.265-.922.358-1.136.092-.215.226-.383.403-.505.176-.123.394-.184.656-.184.256,0,.497.075.723.224.226.149.4.365.524.647.124.281.186.599.186.954,0,.589-.122,1.037-.367,1.346-.245.308-.607.505-1.088.591Z"/>
          </g>
        </g>
      </g>
      <g id="patch_3" data-name="patch 3">
        <path class="cls-8" d="M30.754,148.426V3.152"/>
      </g>
      <g id="patch_5" data-name="patch 5">
        <path class="cls-8" d="M30.754,148.426h194.958"/>
      </g>
    </g>
  </g>
  <g>
    <g>
      <path class="cls-1" d="M167.654,12.486v-7.158h.947v6.313h3.525v.845h-4.473Z"/>
      <path class="cls-1" d="M176.692,10.816l.908.112c-.144.531-.408.942-.796,1.235s-.882.439-1.484.439c-.759,0-1.36-.233-1.804-.701-.445-.467-.667-1.122-.667-1.965,0-.873.225-1.549.674-2.031s1.032-.723,1.748-.723c.693,0,1.26.236,1.699.708s.659,1.136.659,1.992c0,.052-.002.13-.005.234h-3.867c.032.57.193,1.006.483,1.309s.651.454,1.084.454c.322,0,.598-.084.825-.254s.408-.439.542-.811ZM173.807,9.395h2.896c-.039-.436-.149-.763-.332-.981-.28-.338-.643-.508-1.089-.508-.403,0-.743.135-1.019.405-.274.27-.427.631-.456,1.084Z"/>
      <path class="cls-1" d="M182.088,11.846c-.325.277-.639.472-.939.586-.302.114-.625.171-.97.171-.569,0-1.008-.139-1.313-.417s-.459-.634-.459-1.067c0-.254.058-.486.174-.696.115-.21.267-.378.453-.505.188-.127.398-.223.633-.288.173-.045.433-.089.781-.132.71-.084,1.232-.186,1.567-.303.003-.121.005-.197.005-.229,0-.358-.083-.61-.249-.757-.225-.199-.559-.298-1.001-.298-.413,0-.719.072-.916.217-.196.145-.342.401-.437.769l-.859-.117c.078-.368.207-.665.386-.891s.438-.4.776-.522.73-.183,1.177-.183c.442,0,.803.052,1.079.156s.48.235.61.393.222.357.273.598c.029.15.044.42.044.811v1.172c0,.817.019,1.334.056,1.55.038.216.112.424.223.623h-.918c-.091-.182-.149-.396-.176-.64ZM182.015,9.883c-.319.13-.798.241-1.436.332-.361.052-.617.111-.767.176s-.266.16-.347.286-.122.265-.122.417c0,.234.089.43.266.586.178.156.438.234.779.234.339,0,.64-.074.903-.222s.457-.351.581-.608c.095-.199.142-.492.142-.879v-.322Z"/>
      <path class="cls-1" d="M184.256,12.486v-5.186h.791v.786c.202-.368.388-.61.56-.728.17-.117.358-.176.563-.176.296,0,.598.094.903.283l-.303.815c-.215-.127-.43-.19-.645-.19-.192,0-.364.058-.518.173s-.262.276-.327.481c-.098.312-.146.654-.146,1.025v2.715h-.879Z"/>
      <path class="cls-1" d="M187.596,12.486v-5.186h.791v.737c.381-.57.931-.854,1.65-.854.312,0,.6.056.862.168.262.112.458.26.588.442s.222.399.273.649c.032.163.049.448.049.854v3.188h-.879v-3.154c0-.358-.034-.626-.103-.803s-.189-.319-.364-.425c-.174-.106-.378-.159-.612-.159-.374,0-.697.119-.97.356-.271.238-.407.688-.407,1.353v2.832h-.879Z"/>
      <path class="cls-1" d="M196.707,10.816l.908.112c-.144.531-.408.942-.796,1.235s-.882.439-1.484.439c-.759,0-1.36-.233-1.804-.701-.445-.467-.667-1.122-.667-1.965,0-.873.225-1.549.674-2.031s1.032-.723,1.748-.723c.693,0,1.26.236,1.699.708s.659,1.136.659,1.992c0,.052-.002.13-.005.234h-3.867c.032.57.193,1.006.483,1.309s.651.454,1.084.454c.322,0,.598-.084.825-.254s.408-.439.542-.811ZM193.821,9.395h2.896c-.039-.436-.149-.763-.332-.981-.28-.338-.643-.508-1.089-.508-.403,0-.743.135-1.019.405-.274.27-.427.631-.456,1.084Z"/>
      <path class="cls-1" d="M198.709,12.486v-5.186h.791v.786c.202-.368.388-.61.56-.728.17-.117.358-.176.563-.176.296,0,.598.094.903.283l-.303.815c-.215-.127-.43-.19-.645-.19-.192,0-.364.058-.518.173s-.262.276-.327.481c-.098.312-.146.654-.146,1.025v2.715h-.879Z"/>
      <path class="cls-1" d="M201.697,10.938l.869-.137c.049.348.185.615.407.801.224.186.535.278.936.278.403,0,.703-.082.898-.247s.293-.357.293-.579c0-.199-.086-.355-.259-.469-.12-.078-.42-.177-.898-.298-.645-.163-1.091-.304-1.341-.422-.248-.119-.438-.283-.566-.493-.128-.21-.192-.442-.192-.696,0-.231.053-.445.159-.642.105-.197.249-.36.432-.491.137-.101.323-.187.559-.256.236-.07.489-.105.76-.105.407,0,.764.059,1.072.176.307.117.534.276.681.476s.247.468.303.803l-.859.117c-.039-.267-.152-.475-.339-.625-.188-.15-.452-.225-.794-.225-.403,0-.691.067-.864.2s-.259.29-.259.469c0,.114.036.216.107.308.071.094.184.172.337.234.088.033.347.107.776.225.622.166,1.056.302,1.302.408.245.106.438.26.578.461s.21.453.21.752c0,.293-.085.569-.257.828-.17.259-.417.459-.739.601s-.687.212-1.094.212c-.674,0-1.188-.14-1.54-.42-.354-.28-.579-.695-.677-1.245Z"/>
    </g>
    <g>
      <path class="cls-3" d="M167.685,25.985v-7.158h.972l3.76,5.62v-5.62h.908v7.158h-.972l-3.76-5.625v5.625h-.908Z"/>
      <path class="cls-3" d="M174.477,23.392c0-.96.267-1.671.801-2.134.446-.384.989-.576,1.631-.576.713,0,1.296.233,1.748.701s.679,1.112.679,1.936c0,.667-.101,1.192-.3,1.575-.201.382-.492.68-.875.891-.382.211-.8.317-1.252.317-.726,0-1.312-.233-1.76-.698-.448-.465-.672-1.136-.672-2.012ZM175.38,23.392c0,.664.145,1.161.435,1.492s.654.496,1.094.496c.437,0,.799-.166,1.089-.498s.435-.838.435-1.519c0-.641-.146-1.127-.438-1.458-.291-.331-.653-.496-1.086-.496-.439,0-.804.165-1.094.493s-.435.825-.435,1.489Z"/>
      <path class="cls-3" d="M180.365,25.985v-5.186h.791v.737c.381-.57.931-.854,1.65-.854.312,0,.6.056.862.168.262.112.458.26.588.442s.222.399.273.649c.032.163.049.448.049.854v3.188h-.879v-3.154c0-.358-.034-.626-.103-.803s-.189-.319-.364-.425c-.174-.106-.378-.159-.612-.159-.374,0-.697.119-.97.356-.271.238-.407.688-.407,1.353v2.832h-.879Z"/>
      <path class="cls-3" d="M185.585,23.837v-.884h2.7v.884h-2.7Z"/>
      <path class="cls-3" d="M189.237,25.985v-7.158h.879v7.158h-.879Z"/>
      <path class="cls-3" d="M195.028,24.315l.908.112c-.144.531-.408.942-.796,1.235s-.882.439-1.484.439c-.759,0-1.36-.233-1.804-.701-.445-.467-.667-1.122-.667-1.965,0-.873.225-1.549.674-2.031s1.032-.723,1.748-.723c.693,0,1.26.236,1.699.708s.659,1.136.659,1.992c0,.052-.002.13-.005.234h-3.867c.032.57.193,1.006.483,1.309s.651.454,1.084.454c.322,0,.598-.084.825-.254s.408-.439.542-.811ZM192.143,22.894h2.896c-.039-.436-.149-.763-.332-.981-.28-.338-.643-.508-1.089-.508-.403,0-.743.135-1.019.405-.274.27-.427.631-.456,1.084Z"/>
      <path class="cls-3" d="M200.424,25.345c-.325.277-.639.472-.939.586-.302.114-.625.171-.97.171-.569,0-1.008-.139-1.313-.417s-.459-.634-.459-1.067c0-.254.058-.486.174-.696.115-.21.267-.378.453-.505.188-.127.398-.223.633-.288.173-.045.433-.089.781-.132.71-.084,1.232-.186,1.567-.303.003-.121.005-.197.005-.229,0-.358-.083-.61-.249-.757-.225-.199-.559-.298-1.001-.298-.413,0-.719.072-.916.217-.196.145-.342.401-.437.769l-.859-.117c.078-.368.207-.665.386-.891s.438-.4.776-.522.73-.183,1.177-.183c.442,0,.803.052,1.079.156s.48.235.61.393.222.357.273.598c.029.15.044.42.044.811v1.172c0,.817.019,1.334.056,1.55.038.216.112.424.223.623h-.918c-.091-.182-.149-.396-.176-.64ZM200.351,23.382c-.319.13-.798.241-1.436.332-.361.052-.617.111-.767.176s-.266.16-.347.286-.122.265-.122.417c0,.234.089.43.266.586.178.156.438.234.779.234.339,0,.64-.074.903-.222s.457-.351.581-.608c.095-.199.142-.492.142-.879v-.322Z"/>
      <path class="cls-3" d="M202.592,25.985v-5.186h.791v.786c.202-.368.388-.61.56-.728.17-.117.358-.176.563-.176.296,0,.598.094.903.283l-.303.815c-.215-.127-.43-.19-.645-.19-.192,0-.364.058-.518.173s-.262.276-.327.481c-.098.312-.146.654-.146,1.025v2.715h-.879Z"/>
      <path class="cls-3" d="M205.932,25.985v-5.186h.791v.737c.381-.57.931-.854,1.65-.854.312,0,.6.056.862.168.262.112.458.26.588.442s.222.399.273.649c.032.163.049.448.049.854v3.188h-.879v-3.154c0-.358-.034-.626-.103-.803s-.189-.319-.364-.425c-.174-.106-.378-.159-.612-.159-.374,0-.697.119-.97.356-.271.238-.407.688-.407,1.353v2.832h-.879Z"/>
      <path class="cls-3" d="M215.043,24.315l.908.112c-.144.531-.408.942-.796,1.235s-.882.439-1.484.439c-.759,0-1.36-.233-1.804-.701-.445-.467-.667-1.122-.667-1.965,0-.873.225-1.549.674-2.031s1.032-.723,1.748-.723c.693,0,1.26.236,1.699.708s.659,1.136.659,1.992c0,.052-.002.13-.005.234h-3.867c.032.57.193,1.006.483,1.309s.651.454,1.084.454c.322,0,.598-.084.825-.254s.408-.439.542-.811ZM212.157,22.894h2.896c-.039-.436-.149-.763-.332-.981-.28-.338-.643-.508-1.089-.508-.403,0-.743.135-1.019.405-.274.27-.427.631-.456,1.084Z"/>
      <path class="cls-3" d="M217.045,25.985v-5.186h.791v.786c.202-.368.388-.61.56-.728.17-.117.358-.176.563-.176.296,0,.598.094.903.283l-.303.815c-.215-.127-.43-.19-.645-.19-.192,0-.364.058-.518.173s-.262.276-.327.481c-.098.312-.146.654-.146,1.025v2.715h-.879Z"/>
      <path class="cls-3" d="M220.033,24.437l.869-.137c.049.348.185.615.407.801.224.186.535.278.936.278.403,0,.703-.082.898-.247s.293-.357.293-.579c0-.199-.086-.355-.259-.469-.12-.078-.42-.177-.898-.298-.645-.163-1.091-.304-1.341-.422-.248-.119-.438-.283-.566-.493-.128-.21-.192-.442-.192-.696,0-.231.053-.445.159-.642.105-.197.249-.36.432-.491.137-.101.323-.187.559-.256.236-.07.489-.105.76-.105.407,0,.764.059,1.072.176.307.117.534.276.681.476s.247.468.303.803l-.859.117c-.039-.267-.152-.475-.339-.625-.188-.15-.452-.225-.794-.225-.403,0-.691.067-.864.2s-.259.29-.259.469c0,.114.036.216.107.308.071.094.184.172.337.234.088.033.347.107.776.225.622.166,1.056.302,1.302.408.245.106.438.26.578.461s.21.453.21.752c0,.293-.085.569-.257.828-.17.259-.417.459-.739.601s-.687.212-1.094.212c-.674,0-1.188-.14-1.54-.42-.354-.28-.579-.695-.677-1.245Z"/>
    </g>
    <path id="C0_0_4f4850a693-17" data-name="C0 0 4f4850a693" class="cls-3" d="M161.284,25.248c.512,0,1.003-.203,1.365-.565s.565-.853.565-1.365-.203-1.003-.565-1.365-.853-.565-1.365-.565-1.003.203-1.365.565-.565.853-.565,1.365.203,1.003.565,1.365.853.565,1.365.565Z"/>
    <path id="C0_0_4f4850a693-18" data-name="C0 0 4f4850a693" class="cls-1" d="M161.284,11.749c.512,0,1.003-.203,1.365-.565s.565-.853.565-1.365-.203-1.003-.565-1.365-.853-.565-1.365-.565-1.003.203-1.365.565-.565.853-.565,1.365.203,1.003.565,1.365.853.565,1.365.565Z"/>
  </g>
  <rect class="cls-7" x="157.262" y="3.238" width="69.141" height="27.407"/>
  <g>
    <circle class="cls-6" cx="48.479" cy="148.426" r="5.669"/>
    <g>
      <path class="cls-4" d="M47.512,149.725v.602h-3.369c-.004-.15.02-.296.073-.435.086-.229.223-.455.412-.678s.462-.48.819-.772c.554-.454.928-.813,1.123-1.079.194-.266.292-.517.292-.753,0-.248-.089-.457-.266-.628-.177-.17-.409-.255-.694-.255-.301,0-.542.09-.723.271-.181.182-.272.432-.274.751l-.643-.065c.044-.48.209-.846.497-1.097.287-.252.673-.378,1.158-.378.489,0,.876.136,1.161.407s.428.607.428,1.008c0,.204-.042.405-.125.602-.083.197-.222.404-.416.623-.194.218-.515.517-.965.896-.375.315-.617.529-.723.642-.107.112-.195.226-.264.339h2.5Z"/>
      <path class="cls-4" d="M48.447,150.327v-5.097h2.26c.454,0,.8.046,1.036.137.236.092.425.254.566.485.142.231.212.488.212.769,0,.361-.117.666-.351.914-.234.248-.596.405-1.085.473.178.086.314.171.407.254.197.181.384.407.56.678l.887,1.388h-.848l-.675-1.061c-.197-.306-.359-.54-.486-.702-.128-.162-.242-.276-.343-.341-.101-.064-.203-.11-.308-.136-.077-.016-.202-.024-.375-.024h-.782v2.264h-.675ZM49.122,147.479h1.45c.308,0,.549-.031.723-.096.174-.063.306-.165.396-.306s.136-.293.136-.457c0-.241-.088-.439-.263-.595s-.452-.233-.829-.233h-1.613v1.687Z"/>
    </g>
  </g>
  <g>
    <circle class="cls-6" cx="49.601" cy="27.308" r="5.669"/>
    <g>
      <path class="cls-4" d="M48.594,25.359l-.623.048c-.056-.246-.134-.424-.236-.535-.169-.179-.378-.268-.626-.268-.199,0-.374.056-.525.167-.197.144-.352.354-.466.629s-.173.669-.177,1.179c.15-.229.335-.4.553-.511s.446-.167.685-.167c.417,0,.772.154,1.065.461.293.307.44.704.44,1.191,0,.32-.069.617-.207.892-.138.275-.327.485-.568.631s-.515.219-.82.219c-.521,0-.947-.192-1.276-.575-.329-.384-.494-1.016-.494-1.897,0-.985.182-1.701.546-2.148.318-.39.745-.584,1.283-.584.401,0,.729.113.985.337.256.225.41.536.461.932ZM46.038,27.556c0,.215.046.422.138.619.091.197.219.347.384.45.165.104.337.155.518.155.264,0,.492-.106.682-.32s.285-.503.285-.869c0-.353-.094-.63-.282-.833-.188-.203-.424-.305-.709-.305-.283,0-.522.102-.72.305-.197.203-.295.469-.295.798Z"/>
      <path class="cls-4" d="M49.57,29.208v-5.097h2.26c.454,0,.8.046,1.036.137.236.092.425.253.566.485.142.232.212.488.212.768,0,.362-.117.667-.351.915-.234.248-.596.406-1.085.473.178.085.314.17.407.253.197.181.384.407.56.678l.887,1.387h-.848l-.675-1.061c-.197-.306-.359-.54-.486-.702-.128-.162-.242-.276-.343-.341-.101-.065-.203-.11-.308-.136-.077-.016-.202-.024-.375-.024h-.782v2.264h-.675ZM50.245,26.36h1.45c.308,0,.549-.032.723-.096.174-.063.306-.166.396-.306s.136-.292.136-.458c0-.241-.088-.439-.263-.594s-.452-.233-.829-.233h-1.613v1.686Z"/>
    </g>
  </g>
</svg>